<?xml version="1.0" encoding="UTF-8"?>
<svg version="1.1" xmlns="http://www.w3.org/2000/svg" width="512" height="512">
<path d="M0 0 C1.01790619 0.00215515 2.03581238 0.0043103 3.08456421 0.00653076 C17.69363523 0.05620146 32.02575853 0.30709809 46.375 3.3125 C47.34985352 3.51117676 48.32470703 3.70985352 49.32910156 3.91455078 C97.7109774 14.03517194 141.69928269 35.9516877 177.375 70.3125 C178.3640332 71.26068604 178.3640332 71.26068604 179.37304688 72.22802734 C188.86130305 81.37247479 197.6012044 90.66984009 205.375 101.3125 C206.23306152 102.46355017 207.09113451 103.61459177 207.94921875 104.765625 C213.98736829 112.95680614 219.34595521 121.47054105 224.375 130.3125 C224.73948242 130.94430176 225.10396484 131.57610352 225.47949219 132.22705078 C247.08534998 169.97532572 256.85198095 212.74189997 256.6875 255.9375 C256.68534485 256.95540619 256.6831897 257.97331238 256.68096924 259.02206421 C256.63129854 273.63113523 256.38040191 287.96325853 253.375 302.3125 C253.07698486 303.77478027 253.07698486 303.77478027 252.77294922 305.26660156 C242.65232806 353.6484774 220.7358123 397.63678269 186.375 433.3125 C185.74287598 433.97185547 185.11075195 434.63121094 184.45947266 435.31054688 C175.31502521 444.79880305 166.01765991 453.5387044 155.375 461.3125 C154.22394983 462.17056152 153.07290823 463.02863451 151.921875 463.88671875 C143.73224019 469.92427396 135.22961724 475.30707302 126.375 480.3125 C125.66778809 480.7146875 124.96057617 481.116875 124.23193359 481.53125 C101.09654164 494.5566741 75.92537591 503.30551461 49.9375 508.625 C49.21860596 508.77235596 48.49971191 508.91971191 47.7590332 509.0715332 C33.08339502 511.86090125 18.55831162 512.66142619 3.64770508 512.62817383 C0.70811513 512.6250221 -2.2304558 512.64854926 -5.16992188 512.67382812 C-18.54306192 512.71848737 -31.43916711 511.51301542 -44.625 509.3125 C-46.33055054 509.03031616 -46.33055054 509.03031616 -48.07055664 508.74243164 C-91.33802759 500.97044532 -132.38793216 480.98345309 -165.625 452.3125 C-166.37007813 451.67828125 -167.11515625 451.0440625 -167.8828125 450.390625 C-181.38779833 438.57948485 -194.05918743 425.82889772 -204.625 411.3125 C-205.48149066 410.16255169 -206.33826433 409.01281411 -207.1953125 407.86328125 C-213.23534209 399.67315742 -218.61867614 391.16870382 -223.625 382.3125 C-224.0271875 381.60528809 -224.429375 380.89807617 -224.84375 380.16943359 C-237.8691741 357.03404164 -246.61801461 331.86287591 -251.9375 305.875 C-252.08485596 305.15610596 -252.23221191 304.43721191 -252.3840332 303.6965332 C-255.35789088 288.05024391 -255.99800362 272.57681954 -255.9375 256.6875 C-255.93534485 255.66959381 -255.9331897 254.65168762 -255.93096924 253.60293579 C-255.88129854 238.99386477 -255.63040191 224.66174147 -252.625 210.3125 C-252.42632324 209.33764648 -252.22764648 208.36279297 -252.02294922 207.35839844 C-241.90232806 158.9765226 -219.9858123 114.98821731 -185.625 79.3125 C-184.99287598 78.65314453 -184.36075195 77.99378906 -183.70947266 77.31445312 C-174.56502521 67.82619695 -165.26765991 59.0862956 -154.625 51.3125 C-153.47394983 50.45443848 -152.32290823 49.59636549 -151.171875 48.73828125 C-142.98224019 42.70072604 -134.47961724 37.31792698 -125.625 32.3125 C-124.91778809 31.9103125 -124.21057617 31.508125 -123.48193359 31.09375 C-100.34654164 18.0683259 -75.17537591 9.31948539 -49.1875 4 C-48.46860596 3.85264404 -47.74971191 3.70528809 -47.0090332 3.5534668 C-31.36274391 0.57960912 -15.88931954 -0.06050362 0 0 Z " fill="#517FFC" transform="translate(255.625,-0.3125)"/>
<path d="M0 0 C1.01790619 0.00215515 2.03581238 0.0043103 3.08456421 0.00653076 C17.69363523 0.05620146 32.02575853 0.30709809 46.375 3.3125 C47.34985352 3.51117676 48.32470703 3.70985352 49.32910156 3.91455078 C97.7109774 14.03517194 141.69928269 35.9516877 177.375 70.3125 C178.3640332 71.26068604 178.3640332 71.26068604 179.37304688 72.22802734 C188.86130305 81.37247479 197.6012044 90.66984009 205.375 101.3125 C206.23306152 102.46355017 207.09113451 103.61459177 207.94921875 104.765625 C213.98736829 112.95680614 219.34595521 121.47054105 224.375 130.3125 C224.73948242 130.94430176 225.10396484 131.57610352 225.47949219 132.22705078 C240.2662597 158.06147822 249.52621326 187.01748338 254.375 216.3125 C254.49214355 216.99731445 254.60928711 217.68212891 254.72998047 218.38769531 C257.01605282 232.26717765 256.57648603 246.29062196 256.375 260.3125 C249.80960609 254.90687976 243.84561848 248.93151079 237.84008789 242.92285156 C236.68655855 241.77231846 235.53282578 240.62198929 234.37890625 239.47184753 C231.26335718 236.36508739 228.15101606 233.25513307 225.03953862 230.14429569 C223.09543982 228.20090938 221.15063003 226.25823751 219.2055645 224.31581879 C212.42089482 217.54037993 205.63879236 210.76238367 198.85913086 203.98193359 C192.53506514 197.6572651 186.20542089 191.33821751 179.87318426 185.02173066 C174.43428598 179.59587997 168.99922148 174.16620941 163.56716341 168.73351073 C160.32341412 165.48950598 157.0781166 162.2470873 153.82896614 159.00849152 C150.78019966 155.96936121 147.73621095 152.92552755 144.69591522 149.87792397 C143.5769336 148.75789145 142.45622549 147.63958089 141.33371544 146.52308464 C139.80772462 145.00474462 138.28795456 143.48044545 136.76966858 141.95440674 C135.91596208 141.101245 135.06225557 140.24808327 134.18267918 139.36906815 C132.375 137.3125 132.375 137.3125 132.375 135.3125 C131.79234375 135.05210937 131.2096875 134.79171875 130.609375 134.5234375 C128.23497531 133.23661249 126.58263416 131.78997199 124.625 129.9375 C117.52181569 123.57643942 110.86736321 121.20987941 101.40673828 121.13549805 C100.36693314 121.12564125 100.36693314 121.12564125 99.30612183 121.11558533 C97.01918417 121.0959243 94.73231188 121.0842073 92.4453125 121.07421875 C91.27053156 121.06810546 91.27053156 121.06810546 90.07201767 121.06186867 C85.92838559 121.04104091 81.78478632 121.0267237 77.64111328 121.01733398 C73.36832182 121.00626247 69.09605009 120.97184506 64.82344246 120.93216228 C61.53082324 120.90598889 58.23832795 120.89764165 54.94561386 120.89405251 C53.37078202 120.8891902 51.79595558 120.87758628 50.22122574 120.85901451 C48.01441666 120.83460095 45.80895425 120.83559095 43.60205078 120.8425293 C42.348367 120.83666306 41.09468323 120.83079681 39.80300903 120.82475281 C35.72988226 121.40428925 33.55975316 122.7561838 30.375 125.3125 C28.84285112 128.37679776 29.14561452 130.9290642 29.375 134.3125 C30.67527975 137.00769712 30.67527975 137.00769712 32.375 139.3125 C32.684375 140.034375 32.99375 140.75625 33.3125 141.5 C34.21449697 143.43865879 34.21449697 143.43865879 36.08886719 144.08764648 C39.24109355 145.77653154 41.52902846 148.20063125 44.015625 150.72265625 C44.54267029 151.25015976 45.06971558 151.77766327 45.61273193 152.32115173 C46.72108725 153.43251922 47.82702011 154.54630726 48.93066406 155.66235352 C50.62770857 157.37773784 52.33270328 159.08490171 54.0390625 160.79101562 C55.11505803 161.87192351 56.19059527 162.95328783 57.265625 164.03515625 C57.77804749 164.54869156 58.29046997 165.06222687 58.81842041 165.59132385 C62.375 169.19643011 62.375 169.19643011 62.375 170.3125 C46.68106998 173.17988248 26.66341117 176.8103308 12.17108154 168.46826172 C4.45710897 162.95894446 -2.14627931 156.37771234 -8.5625 149.4375 C-9.02449547 148.93934029 -9.48649094 148.44118057 -9.96248627 147.92792511 C-26.625 129.86490998 -26.625 129.86490998 -26.625 126.3125 C-27.181875 126.044375 -27.73875 125.77625 -28.3125 125.5 C-30.625 124.3125 -30.625 124.3125 -32.83187866 122.76353455 C-36.3040251 120.95974451 -38.7226976 120.92553297 -42.62744141 120.90844727 C-43.6554184 120.89815239 -43.6554184 120.89815239 -44.7041626 120.88764954 C-46.96184238 120.86940451 -49.21882502 120.8732183 -51.4765625 120.87890625 C-53.05732446 120.87434058 -54.63808443 120.86903386 -56.21884155 120.86302185 C-59.53253231 120.85409319 -62.8459821 120.85650774 -66.15966797 120.86645508 C-70.37933417 120.87789515 -74.5981573 120.8578093 -78.81771278 120.82853794 C-82.08484073 120.8100638 -85.3517713 120.81049136 -88.61893845 120.81617546 C-90.17286733 120.81632758 -91.72681055 120.81037521 -93.28068924 120.79788399 C-106.41842317 120.7072123 -116.66356942 122.38099682 -126.45703125 131.80078125 C-132.2220986 138.47994936 -134.72224145 145.65735237 -134.80200195 154.36279297 C-134.81483719 155.58441132 -134.82767242 156.80602966 -134.84089661 158.06466675 C-134.84828354 159.3813736 -134.85567047 160.69808044 -134.86328125 162.0546875 C-134.86735678 162.72754917 -134.8714323 163.40041084 -134.87563133 164.09366226 C-134.89644903 167.65374693 -134.91077044 171.21379352 -134.92016602 174.77392578 C-134.93123469 178.44141454 -134.96565115 182.10829731 -135.00533772 185.77557182 C-135.03153431 188.60496109 -135.03986037 191.43420635 -135.04344749 194.26370621 C-135.05065675 196.2700389 -135.07707803 198.27627298 -135.10383606 200.28244019 C-135.08374312 208.71587079 -134.09560981 212.65833647 -128.2199707 218.84472656 C-127.36363037 219.6590918 -126.50729004 220.47345703 -125.625 221.3125 C-124.74094482 222.19131836 -123.85688965 223.07013672 -122.94604492 223.97558594 C-122.48594528 224.43245789 -122.02584564 224.88932983 -121.55180359 225.36004639 C-119.50641171 227.39199466 -117.46374358 229.42667249 -115.42114258 231.46142578 C-114.34063613 232.53684865 -113.25924225 233.61138058 -112.17700195 234.68505859 C-110.60916567 236.24084732 -109.04450971 237.79977209 -107.48046875 239.359375 C-106.54871826 240.28588867 -105.61696777 241.21240234 -104.65698242 242.16699219 C-102.625 244.3125 -102.625 244.3125 -102.625 245.3125 C-103.58220444 245.31463753 -103.58220444 245.31463753 -104.55874634 245.31681824 C-111.21033519 245.33652944 -117.86100812 245.39083418 -124.51220703 245.46508789 C-126.99325994 245.48826167 -129.47441114 245.50266211 -131.95556641 245.50805664 C-135.52568776 245.51735011 -139.09426441 245.55835363 -142.6640625 245.60546875 C-144.32376572 245.59956978 -144.32376572 245.59956978 -146.01699829 245.59355164 C-152.64142672 245.66606288 -152.64142672 245.66606288 -158.32495117 248.71630859 C-160.66775922 251.36076468 -161.42976576 252.28757404 -161.3125 255.75 C-161.0073485 260.69840271 -159.00920073 262.84369425 -155.625 266.3125 C-155.625 266.9725 -155.625 267.6325 -155.625 268.3125 C-155.07682617 268.53615234 -154.52865234 268.75980469 -153.96386719 268.99023438 C-150.92254281 270.70963029 -148.64266379 273.00873999 -146.203125 275.46875 C-145.69827576 275.97168579 -145.19342651 276.47462158 -144.67327881 276.99279785 C-143.61192003 278.05279986 -142.55306581 279.11531488 -141.49658203 280.18017578 C-139.87360876 281.81390046 -138.24018932 283.43663294 -136.60546875 285.05859375 C-135.57487854 286.09050476 -134.54490848 287.12303559 -133.515625 288.15625 C-133.02507629 288.64275024 -132.53452759 289.12925049 -132.02911377 289.63049316 C-128.625 293.08255651 -128.625 293.08255651 -128.625 295.3125 C-130.2704378 297.00012851 -131.93788577 298.6665349 -133.625 300.3125 C-134.95581015 302.9741203 -134.76678828 305.01569589 -134.78613281 307.99633789 C-134.79574036 309.18840347 -134.8053479 310.38046906 -134.81524658 311.60865784 C-134.81949646 312.90440231 -134.82374634 314.20014679 -134.828125 315.53515625 C-134.83387992 316.8783722 -134.83963761 318.22158815 -134.84539795 319.56480408 C-134.8559133 322.38687522 -134.86175108 325.20891787 -134.86523438 328.03100586 C-134.87069145 331.62640673 -134.89465646 335.22142357 -134.92320633 338.81670475 C-134.94195275 341.59560696 -134.94704484 344.37441938 -134.94857025 347.15337944 C-134.95302675 349.11686989 -134.97162395 351.08031204 -134.99053955 353.04371643 C-134.96301051 364.18092331 -132.78393537 373.76136827 -124.96875 382.07421875 C-124.4221875 382.60660156 -123.875625 383.13898438 -123.3125 383.6875 C-122.425625 384.55375 -121.53875 385.42 -120.625 386.3125 C-120.625 386.9725 -120.625 387.6325 -120.625 388.3125 C-120.06966457 388.54293471 -119.51432915 388.77336943 -118.94216537 389.01078701 C-115.98711689 390.67084332 -113.94799259 392.74079937 -111.550354 395.13990784 C-111.05282647 395.63502096 -110.55529893 396.13013408 -110.04269481 396.64025062 C-108.37816667 398.29914662 -106.72087821 399.96508969 -105.06347656 401.63110352 C-103.8712055 402.82230161 -102.6785016 404.01306661 -101.48539734 405.20343018 C-98.24767062 408.43630908 -95.01622901 411.67540415 -91.78600407 414.91577649 C-88.40869384 418.30186389 -85.02611911 421.6826846 -81.64422607 425.06419373 C-75.9682231 430.74113321 -70.29610719 436.42193304 -64.62646484 442.10522461 C-58.06209014 448.68534358 -51.49248451 455.26020239 -44.9198668 461.8320871 C-38.60522879 468.14611588 -32.29344749 474.4629918 -25.98326874 480.78147697 C-23.29344816 483.47483714 -20.60277179 486.16733812 -17.91144562 488.8591938 C-14.74739799 492.02424219 -11.58589968 495.19181512 -8.42640114 498.36140442 C-7.26300327 499.52773536 -6.09874528 500.69320903 -4.93359184 501.85778618 C-3.35063999 503.44025112 -1.77077403 505.0257314 -0.19171143 506.61207581 C0.69538891 507.50085198 1.58248924 508.38962816 2.49647141 509.30533695 C4.375 511.3125 4.375 511.3125 4.375 512.3125 C-12.24853416 512.68415663 -28.24925862 512.30042744 -44.625 509.3125 C-45.5310498 509.15152832 -46.43709961 508.99055664 -47.37060547 508.82470703 C-90.9796498 500.85612442 -132.06250241 481.26417523 -165.625 452.3125 C-166.37007813 451.67828125 -167.11515625 451.0440625 -167.8828125 450.390625 C-181.38779833 438.57948485 -194.05918743 425.82889772 -204.625 411.3125 C-205.48149066 410.16255169 -206.33826433 409.01281411 -207.1953125 407.86328125 C-213.23534209 399.67315742 -218.61867614 391.16870382 -223.625 382.3125 C-224.0271875 381.60528809 -224.429375 380.89807617 -224.84375 380.16943359 C-237.8691741 357.03404164 -246.61801461 331.86287591 -251.9375 305.875 C-252.08485596 305.15610596 -252.23221191 304.43721191 -252.3840332 303.6965332 C-255.35789088 288.05024391 -255.99800362 272.57681954 -255.9375 256.6875 C-255.93534485 255.66959381 -255.9331897 254.65168762 -255.93096924 253.60293579 C-255.88129854 238.99386477 -255.63040191 224.66174147 -252.625 210.3125 C-252.42632324 209.33764648 -252.22764648 208.36279297 -252.02294922 207.35839844 C-241.90232806 158.9765226 -219.9858123 114.98821731 -185.625 79.3125 C-184.99287598 78.65314453 -184.36075195 77.99378906 -183.70947266 77.31445312 C-174.56502521 67.82619695 -165.26765991 59.0862956 -154.625 51.3125 C-153.47394983 50.45443848 -152.32290823 49.59636549 -151.171875 48.73828125 C-142.98224019 42.70072604 -134.47961724 37.31792698 -125.625 32.3125 C-124.91778809 31.9103125 -124.21057617 31.508125 -123.48193359 31.09375 C-100.34654164 18.0683259 -75.17537591 9.31948539 -49.1875 4 C-48.46860596 3.85264404 -47.74971191 3.70528809 -47.0090332 3.5534668 C-31.36274391 0.57960912 -15.88931954 -0.06050362 0 0 Z " fill="#0CAFFE" transform="translate(255.625,-0.3125)"/>
<path d="M0 0 C1.27403687 -0.00525696 2.54807373 -0.01051392 3.86071777 -0.01593018 C7.34022335 -0.029554 10.8194607 -0.02432502 14.2989707 -0.01479292 C17.95160966 -0.00716732 21.60422653 -0.01425026 25.25686646 -0.01895142 C31.39166358 -0.02440194 37.52635219 -0.01723733 43.66113281 -0.00292969 C50.73609217 0.01338098 57.81079191 0.00811712 64.88574493 -0.0084089 C70.97602003 -0.02206131 77.06621737 -0.02392472 83.15650284 -0.0160929 C86.78687229 -0.01143506 90.41712009 -0.01073881 94.04748154 -0.02070236 C98.09951674 -0.03104712 102.15111089 -0.01667364 106.203125 0 C107.39406769 -0.00607269 108.58501038 -0.01214539 109.81204224 -0.0184021 C118.0167235 0.04396268 125.29333679 0.86560498 131.98095703 5.95068359 C145.64773853 20.40593326 140.23095703 33.19726113 140.23095703 54.38818359 C83.47095703 54.38818359 26.71095703 54.38818359 -31.76904297 54.38818359 C-31.76904297 14.48077619 -31.76904297 14.48077619 -23.39404297 5.95068359 C-16.18491257 0.00226319 -8.96753148 -0.0455711 0 0 Z " fill="#FCFDFE" transform="translate(201.76904296875,169.61181640625)"/>
<path d="M0 0 C56.76 0 113.52 0 172 0 C172 36.11111111 172 36.11111111 165.75 45.3125 C160.01331256 50.91880818 153.49633666 53.1077644 145.57504272 53.15390015 C144.47332733 53.16250061 143.37161194 53.17110107 142.23651123 53.17996216 C141.0323053 53.18422211 139.82809937 53.18848206 138.58740234 53.19287109 C137.31540985 53.20104858 136.04341736 53.20922607 134.73287964 53.21765137 C130.51725366 53.24381427 126.30161805 53.25917567 122.0859375 53.2734375 C120.63124206 53.27879999 119.17654668 53.28417751 117.72185135 53.28956985 C111.66711219 53.31119232 105.61237563 53.32992591 99.55760765 53.34119225 C90.89956746 53.35741193 82.24197737 53.39054821 73.5841068 53.44759309 C67.48625585 53.48639105 61.38852477 53.50583667 55.29055369 53.51111281 C51.65379788 53.51475354 48.01752276 53.52663655 44.38090134 53.55921555 C40.31665385 53.59510403 36.25336423 53.59090048 32.18896484 53.58349609 C30.9969043 53.59990143 29.80484375 53.61630676 28.57666016 53.63320923 C20.24650607 53.57126385 13.40881502 51.98177842 7.08862877 46.27376366 C-4.77919152 33.93830915 0 15.70433497 0 0 Z " fill="#FDFEFE" transform="translate(170,289)"/>
<path d="M0 0 C1.26427082 -0.00724325 2.52854165 -0.01448649 3.83112371 -0.02194923 C7.32911323 -0.04113845 10.82605655 -0.0230285 14.32397699 0.00134361 C18.10043245 0.02111654 21.87677358 0.00622029 25.65324402 -0.00430298 C33.04627715 -0.01941356 40.4389071 -0.0025247 47.83189012 0.02524792 C56.44065934 0.05642385 65.04934174 0.05618875 73.6581568 0.05473018 C89.01668626 0.05322888 104.37502819 0.08069909 119.73348999 0.12428284 C134.63879818 0.16655877 149.54394134 0.18779448 164.4493103 0.18580627 C165.36762586 0.18568641 166.28594141 0.18556654 167.23208471 0.18544304 C168.60717112 0.18526144 168.60717112 0.18526144 170.01003706 0.18507618 C186.9783208 0.18300702 203.9465344 0.20067276 220.91479541 0.22753583 C226.91679769 0.23658663 232.91878709 0.2397747 238.92079544 0.24113274 C246.23277978 0.24317853 253.54464588 0.25656412 260.85658003 0.28413116 C264.58783033 0.29798731 268.31892936 0.30712089 272.05020714 0.30334854 C276.0923152 0.29946005 280.13397424 0.31879251 284.17602539 0.34057617 C285.35898937 0.33593037 286.54195335 0.33128456 287.76076472 0.32649797 C288.8427723 0.33617131 289.92477988 0.34584465 291.03957558 0.35581112 C291.97255112 0.35792439 292.90552667 0.36003767 293.8667742 0.36221498 C298.12303759 0.98484071 301.83287002 3.33016189 304.46102905 6.74171448 C305.31526424 10.47899342 305.28479066 14.21728208 303.4414978 17.62843323 C301.30470284 20.29458525 299.7197461 21.65547546 296.46102905 22.74171448 C294.73701521 22.83717163 293.00952706 22.87442158 291.28287792 22.87872887 C290.20423574 22.88380341 289.12559355 22.88887795 288.01426524 22.89410627 C286.82479346 22.89460403 285.63532168 22.89510178 284.4098053 22.89561462 C283.14965774 22.89999688 281.88951018 22.90437913 280.59117633 22.90889418 C277.08645266 22.92086283 273.58174275 22.92650878 270.07700264 22.93107533 C266.29980002 22.93703018 262.52261388 22.94864018 258.74542236 22.95936584 C249.62087778 22.9838903 240.49632774 22.9985159 231.37176034 23.01142591 C228.79533928 23.01513744 226.21891877 23.01911069 223.64249825 23.02317858 C207.64824316 23.04841176 191.65398722 23.07046797 175.65971661 23.08290672 C171.95489689 23.08583648 168.25007721 23.08879814 164.54525757 23.09181213 C163.16401317 23.09293121 163.16401317 23.09293121 161.75486485 23.09407289 C146.83107443 23.10673216 131.907403 23.13996314 116.98366823 23.18161397 C101.6673554 23.2240107 86.35110353 23.24759903 71.03473216 23.25282729 C62.43282478 23.25624369 53.83110345 23.26802595 45.22925377 23.30093002 C37.90512162 23.3289005 30.58121366 23.33994308 23.25703224 23.32873456 C19.5194721 23.32354038 15.78238166 23.32648317 12.04488945 23.3512001 C7.99399993 23.37776633 3.94414861 23.36565856 -0.10679626 23.34971619 C-1.28957588 23.36359827 -2.4723555 23.37748036 -3.69097692 23.39178312 C-12.55276769 23.30555273 -12.55276769 23.30555273 -16.25348186 20.32871437 C-18.99417766 17.22645508 -19.76372473 15.53783394 -20.03897095 11.49171448 C-20.1472522 10.3702301 -20.1472522 10.3702301 -20.25772095 9.22608948 C-17.54029068 -0.16676731 -8.16778312 -0.10694464 0 0 Z " fill="#FCFDFE" transform="translate(113.53897094726563,244.25828552246094)"/>
<path d="M0 0 C1.58702313 -0.00456861 3.17404429 -0.00987619 4.76106262 -0.0158844 C8.07182912 -0.02477727 11.38235385 -0.02243379 14.69311523 -0.01245117 C18.9266063 -0.00092689 23.1592675 -0.02124453 27.39264965 -0.05036831 C30.66385652 -0.06874116 33.93486447 -0.06843642 37.20611 -0.06273079 C38.76696251 -0.06257792 40.32782879 -0.06859407 41.88863182 -0.08102226 C44.07105717 -0.0959638 46.25194766 -0.085237 48.43432617 -0.06811523 C50.2922303 -0.06786598 50.2922303 -0.06786598 52.18766785 -0.06761169 C56.25518065 0.53298975 58.39999422 1.87189105 61.58203125 4.43359375 C64.06589184 8.15938464 63.96245245 10.02070777 63.58203125 14.43359375 C61.75761955 18.65854716 59.67147949 20.42659059 55.58203125 22.43359375 C52.35693359 22.81213379 52.35693359 22.81213379 48.66796875 22.81835938 C47.99252014 22.82373215 47.31707153 22.82910492 46.62115479 22.8346405 C45.16162976 22.84438793 43.70204699 22.84737185 42.24249268 22.84428406 C39.93009955 22.83979143 37.61846583 22.8538455 35.30615234 22.87268066 C29.56522376 22.91562462 23.82431295 22.9267037 18.08325195 22.93890381 C13.22682575 22.95044407 8.37074655 22.9740383 3.51446533 23.01359558 C1.24045118 23.02714463 -1.03309038 23.02299936 -3.30712891 23.01818848 C-4.70606077 23.02753124 -6.10498744 23.0377006 -7.50390625 23.04882812 C-9.32994385 23.05190979 -9.32994385 23.05190979 -11.19287109 23.05505371 C-14.76272757 23.4740592 -16.60523292 24.21976209 -19.41796875 26.43359375 C-21.68347161 29.6159175 -21.67346291 32.47847814 -21.68920898 36.31616211 C-21.6993956 37.50096664 -21.70958221 38.68577118 -21.72007751 39.90647888 C-21.72221756 41.18257523 -21.7243576 42.45867157 -21.7265625 43.7734375 C-21.74528039 45.78140613 -21.76401511 47.78937478 -21.78374577 49.79733372 C-21.82909457 54.74524576 -21.8527327 59.69329333 -21.87426758 64.64135742 C-21.8870853 67.41952288 -21.90778447 70.19743337 -21.9365387 72.97547913 C-21.96280305 75.59080953 -21.9766757 78.20629982 -21.97691345 80.82176208 C-21.99025223 82.00971878 -22.003591 83.19767548 -22.01733398 84.42163086 C-22.02493996 85.98571938 -22.02493996 85.98571938 -22.03269958 87.58140564 C-22.61608395 91.90026139 -24.30107804 94.53387623 -27.66796875 97.24609375 C-31.21368526 98.77719861 -33.58811362 98.91232564 -37.41796875 98.43359375 C-40.94341452 96.23998305 -42.90309322 94.27055638 -44.41796875 90.43359375 C-44.68539429 87.6728363 -44.68539429 87.6728363 -44.70849609 84.46264648 C-44.7212558 83.2571666 -44.7340155 82.05168671 -44.74716187 80.80967712 C-44.74938751 79.50865555 -44.75161316 78.20763397 -44.75390625 76.8671875 C-44.76034041 75.50919965 -44.76706922 74.15121316 -44.77407837 72.79322815 C-44.78604863 69.94439489 -44.78975993 67.0956828 -44.78857422 64.24682617 C-44.78837209 60.62461666 -44.81556318 57.00320116 -44.85011864 53.38117886 C-44.87254794 50.57300879 -44.87640677 47.76502415 -44.87535477 44.95677376 C-44.87881605 42.98116852 -44.90039343 41.00562119 -44.92245483 39.03013611 C-44.86135847 26.84171208 -42.18438419 18.31755069 -33.64453125 9.52734375 C-23.71703964 0.19201831 -12.89503549 -0.03261769 0 0 Z " fill="#FBFDFE" transform="translate(164.41796875,119.56640625)"/>
<path d="M0 0 C0.68677826 -0.00671722 1.37355652 -0.01343445 2.08114624 -0.02035522 C4.34893059 -0.03933091 6.61641855 -0.04326002 8.88427734 -0.04541016 C10.46886311 -0.05184151 12.0534477 -0.05857012 13.63803101 -0.06558228 C16.96184029 -0.07755619 20.28554567 -0.0812633 23.609375 -0.08007812 C27.84594423 -0.07987564 32.0818373 -0.10710332 36.31824684 -0.14162254 C39.59389229 -0.16399052 42.86937805 -0.16791256 46.14509201 -0.16685867 C47.70544119 -0.16920263 49.26579558 -0.17795749 50.82606888 -0.19352341 C63.10722539 -0.30451088 73.43563527 1.2148619 82.83740234 9.89990234 C91.95121242 19.365748 93.85654858 30.07467179 93.72412109 42.81396484 C93.72495239 44.17249745 93.72742154 45.53102993 93.73143005 46.88955688 C93.7342632 49.71184195 93.7198235 52.53332236 93.69213867 55.35546875 C93.65786024 58.960127 93.66416193 62.56336786 93.68280125 66.16809654 C93.69339322 68.96326407 93.68441717 71.7581046 93.66941643 74.55324173 C93.66177589 76.52403706 93.66905922 78.49487221 93.676651 80.46566772 C93.53083295 91.53439401 93.53083295 91.53439401 89.09521484 96.29052734 C85.67970974 98.88160018 82.26196021 98.7934104 78.09521484 98.29052734 C74.61955965 96.27340603 72.39067972 94.17692199 71.09521484 90.29052734 C70.98846701 88.36960649 70.93915609 86.44528917 70.92163086 84.52148438 C70.90814102 83.33660431 70.89465118 82.15172424 70.88075256 80.93093872 C70.86509499 79.00905228 70.86509499 79.00905228 70.84912109 77.04833984 C70.82461769 75.03819948 70.80010306 73.02805918 70.77492428 71.01792717 C70.71418082 66.05793547 70.66350054 61.09785204 70.6184082 56.13769531 C70.59273087 53.35537108 70.5619032 50.57319113 70.52561951 47.79098511 C70.49181431 45.17008543 70.465891 42.54906984 70.44862366 39.92800903 C70.43198166 38.73682465 70.41533966 37.54564026 70.39819336 36.31835938 C70.38273216 34.74974655 70.38273216 34.74974655 70.36695862 33.14944458 C70.07065457 30.0321377 69.7182718 27.98144405 68.09521484 25.29052734 C63.7807965 23.20694849 59.82206472 23.04415533 55.08349609 23.05102539 C54.40950775 23.04901123 53.73551941 23.04699707 53.04110718 23.04492188 C51.58757944 23.04139495 50.13403629 23.04212039 48.68051147 23.04669762 C46.37626618 23.05232287 44.07251825 23.04308109 41.76831055 23.02949524 C35.22067936 22.99249474 28.67322128 22.97383322 22.12548828 22.98510742 C18.11123846 22.99096987 14.09769367 22.97264911 10.08358765 22.93921852 C8.55905122 22.9312857 7.03443752 22.9325128 5.50991821 22.94324303 C3.3748137 22.95762913 1.24191728 22.94124551 -0.89306641 22.91821289 C-2.10518799 22.91758347 -3.31730957 22.91695404 -4.56616211 22.91630554 C-9.05936196 22.07411807 -10.70288548 20.52171223 -13.90478516 17.29052734 C-15.10669417 13.6848003 -15.2314883 11.08028385 -14.90478516 7.29052734 C-10.97780115 0.97930304 -7.1804137 0.04414464 0 0 Z " fill="#FBFDFE" transform="translate(298.90478515625,119.70947265625)"/>
<path d="M0 0 C4.00451749 2.11559414 6.38466657 3.76503085 8 8 C8.27415466 10.75402832 8.27415466 10.75402832 8.30639648 13.95507812 C8.32238388 15.15733032 8.33837128 16.35958252 8.35484314 17.5982666 C8.36020584 18.89615112 8.36556854 20.19403564 8.37109375 21.53125 C8.38007151 22.88684177 8.38919355 24.24243259 8.39845276 25.59802246 C8.41493607 28.44265134 8.42264034 31.28716273 8.42553711 34.13183594 C8.4308885 37.74513637 8.46843328 41.35730144 8.51428127 44.97028351 C8.54431408 47.77420875 8.55126643 50.57787081 8.55226326 53.38194275 C8.55842241 55.35146034 8.58777148 57.32086258 8.61778259 59.29016113 C8.56229691 70.4961554 5.76867923 80.09306626 -2.1171875 88.3203125 C-5.1637744 91.03822197 -8.3248428 93.22210344 -12 95 C-13.0305249 95.50885742 -14.0610498 96.01771484 -15.12280273 96.54199219 C-21.87563252 99.03204623 -29.22128152 98.45148819 -36.3203125 98.43359375 C-37.90876487 98.43816109 -39.49721527 98.4434683 -41.08566284 98.44947815 C-44.4024055 98.45837894 -47.71890693 98.45601907 -51.03564453 98.44604492 C-55.27701122 98.43452999 -59.51754843 98.45482002 -63.75880623 98.48396206 C-67.03430423 98.50233714 -70.30960361 98.50202954 -73.58514023 98.49632454 C-75.1487838 98.49617164 -76.7124411 98.50219012 -78.27603531 98.51461601 C-80.46335812 98.52955868 -82.64914967 98.51882924 -84.83642578 98.50170898 C-86.07804474 98.50154282 -87.3196637 98.50137665 -88.59890747 98.50120544 C-93.19644412 97.8236848 -96.5454422 95.91737165 -99.375 92.1875 C-100.31707395 88.89024117 -100.41260656 86.4187401 -100 83 C-98.21523759 80.02760759 -96.14791945 77.57395973 -93 76 C-90.81616223 75.88937147 -88.62895454 75.84344986 -86.44238281 75.82641602 C-85.76897858 75.819729 -85.09557434 75.81304199 -84.40176392 75.80615234 C-82.93726671 75.79209126 -81.47274745 75.78020057 -80.00821686 75.77020454 C-77.68758701 75.75379639 -75.36711929 75.73055647 -73.04656982 75.70530701 C-66.44779551 75.63454201 -59.84895341 75.57453326 -53.25 75.52319336 C-49.21459788 75.4913178 -45.17937959 75.45001578 -41.14412689 75.40299797 C-39.60843988 75.38702331 -38.07271049 75.37468088 -36.53696442 75.36609077 C-34.38285279 75.35387259 -32.22916918 75.32969477 -30.07519531 75.30297852 C-28.23891571 75.28751732 -28.23891571 75.28751732 -26.36553955 75.27174377 C-22.80677152 74.98439815 -20.19565294 74.61529332 -17 73 C-15.01352215 68.99187514 -14.75298095 65.3312155 -14.76049805 60.90625 C-14.75676682 59.72482422 -14.75303558 58.54339844 -14.74919128 57.32617188 C-14.75332535 56.06353516 -14.75745941 54.80089844 -14.76171875 53.5 C-14.75024739 51.49987445 -14.73874682 49.49974857 -14.72552967 47.49963379 C-14.6954115 42.58567951 -14.68466819 37.67184513 -14.69458008 32.7578125 C-14.69930805 29.99390167 -14.69084045 27.23061833 -14.66816711 24.46679688 C-14.64757381 21.86922225 -14.64665037 19.27139951 -14.66764832 16.67382812 C-14.5586008 6.90476986 -14.5586008 6.90476986 -11.58520508 3.21875 C-7.57921185 -0.21939019 -5.28505291 -0.44042108 0 0 Z " fill="#FCFCFE" transform="translate(384,294)"/>
<path d="M0 0 C3.70909291 1.68595132 5.88296261 3.53787188 8 7 C8.38526917 9.76316833 8.38526917 9.76316833 8.40063477 12.97436523 C8.41397354 14.17919052 8.42731232 15.38401581 8.4410553 16.62535095 C8.44117111 17.92332108 8.44128693 19.2212912 8.44140625 20.55859375 C8.45318399 21.90854828 8.46654919 23.25848981 8.48143005 24.6084137 C8.51759077 28.15909836 8.53780744 31.70966785 8.55297852 35.26049805 C8.57781841 40.93991752 8.61760466 46.6190823 8.67487907 52.29826546 C8.69114947 54.27735913 8.69462298 56.25654466 8.69789124 58.23570251 C8.70807785 59.44367996 8.71826447 60.65165741 8.72875977 61.89624023 C8.73303482 62.9567308 8.73730988 64.01722137 8.74171448 65.10984802 C9.0191466 68.21424582 9.43868029 70.29624406 11 73 C14.85558098 75.27787591 18.50872269 75.25576979 22.9140625 75.27124023 C23.58951111 75.27646698 24.26495972 75.28169373 24.96087646 75.28707886 C26.42040701 75.29728211 27.87997356 75.30309283 29.33953857 75.30496025 C31.65182338 75.30863639 33.96368407 75.32539559 36.27587891 75.34571838 C42.8472505 75.4010188 49.41868323 75.43182857 55.99023438 75.45629883 C60.01616532 75.47219074 64.0417925 75.50242225 68.06756592 75.54106331 C69.59849825 75.55269438 71.12948492 75.55864349 72.66046143 75.55874443 C74.80260893 75.55893692 76.9439202 75.57723287 79.0859375 75.59936523 C80.3032959 75.60443588 81.5206543 75.60950653 82.77490234 75.61473083 C87.12265348 76.13411184 89.70179231 77.74655809 92.8125 80.75 C94.55246428 84.04677442 94.44406988 86.32056389 94 90 C91.88861457 93.99655099 90.24570045 96.42116482 86 98 C82.86633301 98.27415466 82.86633301 98.27415466 79.12695312 98.30639648 C78.44338745 98.31472 77.75982178 98.32304352 77.05554199 98.33161926 C74.79738634 98.35569267 72.53952036 98.36449176 70.28125 98.37109375 C68.70145587 98.38006828 67.12166258 98.38919027 65.54187012 98.39845276 C62.22646018 98.41494243 58.91115114 98.42264173 55.59570312 98.42553711 C51.37713165 98.43089422 47.15952997 98.46846181 42.94123077 98.51428127 C39.67407924 98.54425704 36.40715431 98.55126521 33.13987732 98.55226326 C31.58674215 98.55643183 30.03360416 98.56872868 28.48060608 98.58978081 C15.96049143 98.74586654 5.07054399 96.89958375 -4.3203125 87.87890625 C-13.06155241 78.10091462 -14.4631029 67.74458542 -14.43359375 54.98828125 C-14.43816489 53.64788043 -14.4434732 52.30748195 -14.44947815 50.96708679 C-14.45835906 48.1741679 -14.45604117 45.38153578 -14.44604492 42.58862305 C-14.43451523 39.02094963 -14.45485161 35.45426019 -14.48396206 31.88671589 C-14.5023513 29.12505387 -14.5020271 26.36362708 -14.49632454 23.60191917 C-14.49609813 21.6510282 -14.51294889 19.70015915 -14.53013611 17.74934387 C-14.44304717 6.6854958 -14.44304717 6.6854958 -10 2 C-6.27420911 -0.48386059 -4.41288598 -0.3804212 0 0 Z " fill="#FBFDFE" transform="translate(134,294)"/>
</svg>
